<svg width="25" height="25" viewBox="0 0 25 25" fill="none" xmlns="http://www.w3.org/2000/svg">
<path d="M23.5339 0.00303046C21.1554 0.176579 16.428 0.808272 13.5095 3.10514C13.3082 3.26362 13.194 3.54542 13.194 3.84007V24.1452C13.194 24.7897 13.7422 25.1971 14.2044 24.898C17.207 22.9549 21.5495 22.4248 23.6966 22.2797C24.4297 22.23 24.9996 21.4745 24.9996 20.5688V1.71619C25 0.727915 24.3333 -0.055005 23.5339 0.00303046ZM11.49 3.10514C8.57205 0.808272 3.84462 0.177137 1.46615 0.00303046C0.666667 -0.055005 0 0.727915 0 1.71619V20.5693C0 21.4756 0.569878 22.2312 1.30295 22.2803C3.45095 22.4254 7.79557 22.956 10.7982 24.9002C11.2591 25.1988 11.8056 24.792 11.8056 24.1491V3.83002C11.8056 3.53482 11.6918 3.26418 11.49 3.10514Z" fill="#5E6772" fill-opacity="0.67"/>
</svg>
