<svg width="375" height="296" viewBox="0 0 375 296" fill="none" xmlns="http://www.w3.org/2000/svg">
<g clip-path="url(#clip0_197_334)">
<path d="M0 0H375V296H0V0Z" fill="#0C70E8"/>
<ellipse cx="235.348" cy="199.805" rx="9" ry="5" transform="rotate(119.417 235.348 199.805)" fill="#0C70E8"/>
<ellipse cx="281.852" cy="280.283" rx="24.9513" ry="24.4522" transform="rotate(119.417 281.852 280.283)" fill="#00FFBA"/>
<ellipse cx="250.555" cy="262.636" rx="24.9513" ry="24.4522" transform="rotate(119.417 250.555 262.636)" fill="#00FFBA"/>
<rect x="359.292" y="259.785" width="27.9454" height="85.8323" transform="rotate(119.417 359.292 259.785)" fill="#00E0E3"/>
<rect x="322.526" y="324.988" width="27.9454" height="74.8538" transform="rotate(-150.583 322.526 324.988)" fill="#00E0E3"/>
<path d="M365.566 297.696C355.899 292.246 355.635 274.399 364.975 257.834C374.315 241.269 389.723 232.259 399.39 237.71C409.057 243.16 399.32 255.368 389.979 271.933C380.639 288.498 375.233 303.147 365.566 297.696Z" fill="#D57CE3"/>
<path d="M274.64 190.533L278.302 224.679" stroke="#00AEFB" stroke-width="6"/>
<path d="M258.02 193.516L262.551 228.152" stroke="#00AEFB" stroke-width="6"/>
<path d="M265.657 192.528L270.188 227.165" stroke="#00AEFB" stroke-width="6"/>
<path d="M243.255 216.126C239.488 217.677 237.603 219.564 235.564 223.179C233.747 226.403 231.368 232.879 233.125 236.286C235.667 241.218 246.327 247.997 250.423 240.732C250.981 239.744 251.132 239.55 250.004 238.914C246.858 237.14 245.07 237.16 242.542 240.014C239.824 243.082 239.236 245.384 242.17 248.417C246.635 253.032 251.967 256.852 256.629 261.315C259.103 263.685 258.311 264.064 257.051 266.299" stroke="#0E112C" stroke-width="3" stroke-linecap="round"/>
<path d="M358.778 249.559C360.259 248.922 361.587 245.373 360.734 243.853C359.994 242.532 357.602 241.353 356.346 240.645C355.178 239.986 348.014 235.661 346.767 237.601C345.619 239.385 344.627 241.58 346.795 242.802C349.087 244.095 349.666 241.838 348.985 239.794C348.425 238.117 346.658 237.611 345.36 236.546C342.595 234.275 339.534 232.531 336.78 230.319C334.209 228.255 331.993 226.175 328.658 227.023C322.424 228.609 328.366 235.223 331.183 230.228C332.536 227.829 328.678 225.476 327.058 224.026C323.698 221.017 319.198 217.021 314.841 215.592C312.264 214.747 307.314 214.791 305.863 217.365C304.503 219.777 308.225 222.589 310.649 222.395C312.882 222.216 313.203 219.621 312.645 217.785C311.979 215.589 308.723 212.849 306.8 211.765C304.546 210.494 302.261 208.874 299.709 208.343C296.796 207.737 296.259 209.016 295.003 211.242" stroke="#0E112C" stroke-width="3" stroke-linecap="round"/>
<ellipse cx="373.231" cy="153.212" rx="24.9513" ry="24.4522" transform="rotate(-48.5313 373.231 153.212)" fill="#21BD63"/>
<ellipse cx="400.155" cy="177.005" rx="24.9513" ry="24.4522" transform="rotate(-48.5313 400.155 177.005)" fill="#00FFBA"/>
<rect x="280.875" y="170.552" width="27.9454" height="85.8323" transform="rotate(-48.5313 280.875 170.552)" fill="#0D3CFF"/>
<rect x="342.787" y="101" width="27.9454" height="74.8538" transform="rotate(41.4687 342.787 101)" fill="#0D3CFF"/>
<path d="M361.545 242.491L365.093 208.332" stroke="#00AEFB" stroke-width="6"/>
<path d="M370.746 242.414L373.547 207.595" stroke="#00AEFB" stroke-width="6"/>
</g>
<defs>
<clipPath id="clip0_197_334">
<path d="M0 0H375V296H0V0Z" fill="white"/>
</clipPath>
</defs>
</svg>
