<svg width="375" height="296" viewBox="0 0 375 296" fill="none" xmlns="http://www.w3.org/2000/svg">
<g clip-path="url(#clip0_197_334)">
<path d="M0 0H375V296H0V0Z" fill="#0C70E8"/>
<ellipse cx="235.348" cy="199.805" rx="9" ry="5" transform="rotate(119.417 235.348 199.805)" fill="#0C70E8"/>
<ellipse cx="281.852" cy="280.283" rx="24.9513" ry="24.4522" transform="rotate(119.417 281.852 280.283)" fill="#00FFBA"/>
<ellipse cx="250.555" cy="262.636" rx="24.9513" ry="24.4522" transform="rotate(119.417 250.555 262.636)" fill="#00FFBA"/>
<rect x="359.292" y="259.785" width="27.9454" height="85.8323" transform="rotate(119.417 359.292 259.785)" fill="#00E0E3"/>
<rect x="322.526" y="324.988" width="27.9454" height="74.8538" transform="rotate(-150.583 322.526 324.988)" fill="#00E0E3"/>
<path d="M365.566 297.696C355.899 292.246 355.635 274.399 364.975 257.834C374.315 241.269 389.723 232.259 399.39 237.71C409.057 243.16 399.32 255.368 389.979 271.933C380.639 288.498 375.233 303.147 365.566 297.696Z" fill="#D57CE3"/>
<path d="M274.64 190.533L278.302 224.679" stroke="#00AEFB" stroke-width="6"/>
<path d="M258.02 193.516L262.551 228.152" stroke="#00AEFB" stroke-width="6"/>
<path d="M265.657 192.528L270.188 227.165" stroke="#00AEFB" stroke-width="6"/>
<path d="M243.255 216.126C239.488 217.677 237.603 219.564 235.564 223.179C233.747 226.403 231.368 232.879 233.125 236.286C235.667 241.218 246.327 247.997 250.423 240.732C250.981 239.744 251.132 239.55 250.004 238.914C246.858 237.14 245.07 237.16 242.542 240.014C239.824 243.082 239.236 245.384 242.17 248.417C246.635 253.032 251.967 256.852 256.629 261.315C259.103 263.685 258.311 264.064 257.051 266.299" stroke="#0E112C" stroke-width="3" stroke-linecap="round"/>
<path d="M358.778 249.559C360.259 248.922 361.587 245.373 360.734 243.853C359.994 242.532 357.602 241.353 356.346 240.645C355.178 239.986 348.014 235.661 346.767 237.601C345.619 239.385 344.627 241.58 346.795 242.802C349.087 244.095 349.666 241.838 348.985 239.794C348.425 238.117 346.658 237.611 345.36 236.546C342.595 234.275 339.534 232.531 336.78 230.319C334.209 228.255 331.993 226.175 328.658 227.023C322.424 228.609 328.366 235.223 331.183 230.228C332.536 227.829 328.678 225.476 327.058 224.026C323.698 221.017 319.198 217.021 314.841 215.592C312.264 214.747 307.314 214.791 305.863 217.365C304.503 219.777 308.225 222.589 310.649 222.395C312.882 222.216 313.203 219.621 312.645 217.785C311.979 215.589 308.723 212.849 306.8 211.765C304.546 210.494 302.261 208.874 299.709 208.343C296.796 207.737 296.259 209.016 295.003 211.242" stroke="#0E112C" stroke-width="3" stroke-linecap="round"/>
<ellipse cx="373.231" cy="153.212" rx="24.9513" ry="24.4522" transform="rotate(-48.5313 373.231 153.212)" fill="#21BD63"/>
<ellipse cx="400.155" cy="177.005" rx="24.9513" ry="24.4522" transform="rotate(-48.5313 400.155 177.005)" fill="#00FFBA"/>
<rect x="280.875" y="170.552" width="27.9454" height="85.8323" transform="rotate(-48.5313 280.875 170.552)" fill="#0D3CFF"/>
<rect x="342.787" y="101" width="27.9454" height="74.8538" transform="rotate(41.4687 342.787 101)" fill="#0D3CFF"/>
<path d="M361.545 242.491L365.093 208.332" stroke="#00AEFB" stroke-width="6"/>
<path d="M370.746 242.414L373.547 207.595" stroke="#00AEFB" stroke-width="6"/>
<rect x="251" y="24" width="103" height="33" rx="13" fill="white"/>
<path d="M270.322 47.6155L273.778 36.4155H276.146L279.602 47.6155H278.21L277.346 44.7835H272.578L271.714 47.6155H270.322ZM272.914 43.5675H276.994L275.074 37.2315H274.85L272.914 43.5675ZM280.944 43.7435V43.5195C280.944 42.6981 281.109 41.9941 281.44 41.4075C281.771 40.8208 282.219 40.3675 282.784 40.0475C283.349 39.7275 283.968 39.5675 284.64 39.5675C285.461 39.5675 286.091 39.7275 286.528 40.0475C286.976 40.3568 287.307 40.7035 287.52 41.0875H287.744V39.7915H288.944V49.4395C288.944 49.8661 288.827 50.2021 288.592 50.4475C288.357 50.6928 288.016 50.8155 287.568 50.8155H282.256V49.6955H287.232C287.552 49.6955 287.712 49.5355 287.712 49.2155V46.2395H287.488C287.36 46.4741 287.179 46.7035 286.944 46.9275C286.709 47.1515 286.405 47.3381 286.032 47.4875C285.659 47.6261 285.195 47.6955 284.64 47.6955C283.968 47.6955 283.349 47.5355 282.784 47.2155C282.219 46.8955 281.771 46.4421 281.44 45.8555C281.109 45.2581 280.944 44.5541 280.944 43.7435ZM284.976 46.5755C285.787 46.5755 286.443 46.3195 286.944 45.8075C287.456 45.2955 287.712 44.5915 287.712 43.6955V43.5675C287.712 42.6608 287.456 41.9568 286.944 41.4555C286.443 40.9435 285.787 40.6875 284.976 40.6875C284.176 40.6875 283.515 40.9435 282.992 41.4555C282.48 41.9568 282.224 42.6608 282.224 43.5675V43.6955C282.224 44.5915 282.48 45.2955 282.992 45.8075C283.515 46.3195 284.176 46.5755 284.976 46.5755ZM295.178 47.8395C294.388 47.8395 293.695 47.6741 293.098 47.3435C292.5 47.0021 292.036 46.5275 291.706 45.9195C291.375 45.3115 291.21 44.6075 291.21 43.8075V43.6155C291.21 42.8048 291.375 42.0955 291.706 41.4875C292.036 40.8795 292.495 40.4101 293.082 40.0795C293.668 39.7381 294.34 39.5675 295.098 39.5675C295.834 39.5675 296.484 39.7275 297.05 40.0475C297.615 40.3568 298.058 40.8048 298.378 41.3915C298.698 41.9781 298.858 42.6661 298.858 43.4555V44.0315H292.474C292.506 44.8741 292.778 45.5355 293.29 46.0155C293.802 46.4848 294.442 46.7195 295.21 46.7195C295.882 46.7195 296.399 46.5648 296.762 46.2555C297.124 45.9461 297.402 45.5781 297.594 45.1515L298.682 45.6795C298.522 46.0101 298.298 46.3408 298.01 46.6715C297.732 47.0021 297.364 47.2795 296.906 47.5035C296.458 47.7275 295.882 47.8395 295.178 47.8395ZM292.49 42.9915H297.578C297.535 42.2661 297.284 41.7008 296.826 41.2955C296.378 40.8901 295.802 40.6875 295.098 40.6875C294.383 40.6875 293.796 40.8901 293.338 41.2955C292.879 41.7008 292.596 42.2661 292.49 42.9915ZM301.062 47.6155V39.7915H302.294V41.1195H302.518C302.689 40.7461 302.977 40.4101 303.382 40.1115C303.798 39.8021 304.406 39.6475 305.206 39.6475C305.793 39.6475 306.316 39.7701 306.774 40.0155C307.244 40.2608 307.617 40.6235 307.894 41.1035C308.172 41.5835 308.31 42.1755 308.31 42.8795V47.6155H307.046V42.9755C307.046 42.1968 306.849 41.6315 306.454 41.2795C306.07 40.9275 305.548 40.7515 304.886 40.7515C304.129 40.7515 303.51 40.9968 303.03 41.4875C302.561 41.9781 302.326 42.7088 302.326 43.6795V47.6155H301.062ZM314.187 47.8395C313.515 47.8395 312.896 47.6795 312.331 47.3595C311.765 47.0395 311.317 46.5755 310.987 45.9675C310.656 45.3595 310.491 44.6395 310.491 43.8075V43.5995C310.491 42.7675 310.656 42.0528 310.987 41.4555C311.317 40.8475 311.76 40.3835 312.315 40.0635C312.88 39.7328 313.504 39.5675 314.187 39.5675C314.731 39.5675 315.189 39.6421 315.563 39.7915C315.947 39.9301 316.256 40.1115 316.491 40.3355C316.725 40.5488 316.907 40.7781 317.035 41.0235H317.259V36.4155H318.523V47.6155H317.291V46.3195H317.067C316.853 46.7141 316.523 47.0661 316.075 47.3755C315.627 47.6848 314.997 47.8395 314.187 47.8395ZM314.523 46.7195C315.333 46.7195 315.989 46.4635 316.491 45.9515C317.003 45.4288 317.259 44.7035 317.259 43.7755V43.6315C317.259 42.7035 317.003 41.9835 316.491 41.4715C315.989 40.9488 315.333 40.6875 314.523 40.6875C313.723 40.6875 313.061 40.9488 312.539 41.4715C312.027 41.9835 311.771 42.7035 311.771 43.6315V43.7755C311.771 44.7035 312.027 45.4288 312.539 45.9515C313.061 46.4635 313.723 46.7195 314.523 46.7195ZM323.572 47.8395C323.028 47.8395 322.532 47.7435 322.084 47.5515C321.636 47.3595 321.284 47.0821 321.028 46.7195C320.772 46.3568 320.644 45.9141 320.644 45.3915C320.644 44.8581 320.772 44.4208 321.028 44.0795C321.284 43.7275 321.636 43.4661 322.084 43.2955C322.532 43.1141 323.033 43.0235 323.588 43.0235H326.228V42.4475C326.228 41.8928 326.062 41.4555 325.732 41.1355C325.412 40.8155 324.932 40.6555 324.292 40.6555C323.662 40.6555 323.172 40.8101 322.82 41.1195C322.468 41.4181 322.228 41.8235 322.1 42.3355L320.916 41.9515C321.044 41.5141 321.246 41.1195 321.524 40.7675C321.801 40.4048 322.169 40.1168 322.628 39.9035C323.097 39.6795 323.657 39.5675 324.308 39.5675C325.31 39.5675 326.089 39.8288 326.644 40.3515C327.198 40.8635 327.476 41.5888 327.476 42.5275V46.0635C327.476 46.3835 327.625 46.5435 327.924 46.5435H328.644V47.6155H327.54C327.188 47.6155 326.905 47.5195 326.692 47.3275C326.478 47.1248 326.372 46.8581 326.372 46.5275V46.4475H326.18C326.062 46.6501 325.902 46.8635 325.7 47.0875C325.508 47.3008 325.241 47.4768 324.9 47.6155C324.558 47.7648 324.116 47.8395 323.572 47.8395ZM323.716 46.7515C324.462 46.7515 325.065 46.5328 325.524 46.0955C325.993 45.6475 326.228 45.0235 326.228 44.2235V44.0475H323.636C323.134 44.0475 322.718 44.1595 322.388 44.3835C322.068 44.5968 321.908 44.9221 321.908 45.3595C321.908 45.7968 322.073 46.1381 322.404 46.3835C322.745 46.6288 323.182 46.7515 323.716 46.7515ZM330.375 47.6155V39.7915H331.607V40.7515H331.831C331.969 40.4101 332.183 40.1595 332.471 39.9995C332.759 39.8395 333.137 39.7595 333.607 39.7595H334.535V40.9115H333.527C332.961 40.9115 332.503 41.0715 332.151 41.3915C331.809 41.7008 331.639 42.1861 331.639 42.8475V47.6155H330.375Z" fill="black"/>
</g>
<defs>
<clipPath id="clip0_197_334">
<path d="M0 0H375V296H0V0Z" fill="white"/>
</clipPath>
</defs>
</svg>
