<svg width="24" height="22" viewBox="0 0 24 22" fill="none" xmlns="http://www.w3.org/2000/svg">
<path d="M0.298828 19.8315C0.298828 20.9566 1.43384 21.8695 2.83282 21.8695H21.4154C22.8144 21.8695 23.9494 20.9566 23.9494 19.8315V8.28255H0.298828V19.8315ZM17.1921 11.5094C17.1921 11.2292 17.4772 10.9999 17.8256 10.9999H19.9372C20.2857 10.9999 20.5707 11.2292 20.5707 11.5094V13.2078C20.5707 13.488 20.2857 13.7173 19.9372 13.7173H17.8256C17.4772 13.7173 17.1921 13.488 17.1921 13.2078V11.5094ZM17.1921 16.9442C17.1921 16.664 17.4772 16.4347 17.8256 16.4347H19.9372C20.2857 16.4347 20.5707 16.664 20.5707 16.9442V18.6426C20.5707 18.9228 20.2857 19.1521 19.9372 19.1521H17.8256C17.4772 19.1521 17.1921 18.9228 17.1921 18.6426V16.9442ZM10.4348 11.5094C10.4348 11.2292 10.7199 10.9999 11.0683 10.9999H13.1799C13.5284 10.9999 13.8134 11.2292 13.8134 11.5094V13.2078C13.8134 13.488 13.5284 13.7173 13.1799 13.7173H11.0683C10.7199 13.7173 10.4348 13.488 10.4348 13.2078V11.5094ZM10.4348 16.9442C10.4348 16.664 10.7199 16.4347 11.0683 16.4347H13.1799C13.5284 16.4347 13.8134 16.664 13.8134 16.9442V18.6426C13.8134 18.9228 13.5284 19.1521 13.1799 19.1521H11.0683C10.7199 19.1521 10.4348 18.9228 10.4348 18.6426V16.9442ZM3.67748 11.5094C3.67748 11.2292 3.96255 10.9999 4.31098 10.9999H6.42264C6.77106 10.9999 7.05613 11.2292 7.05613 11.5094V13.2078C7.05613 13.488 6.77106 13.7173 6.42264 13.7173H4.31098C3.96255 13.7173 3.67748 13.488 3.67748 13.2078V11.5094ZM3.67748 16.9442C3.67748 16.664 3.96255 16.4347 4.31098 16.4347H6.42264C6.77106 16.4347 7.05613 16.664 7.05613 16.9442V18.6426C7.05613 18.9228 6.77106 19.1521 6.42264 19.1521H4.31098C3.96255 19.1521 3.67748 18.9228 3.67748 18.6426V16.9442ZM21.4154 2.84776H18.8814V0.809719C18.8814 0.436078 18.5013 0.130371 18.0368 0.130371H16.3474C15.8829 0.130371 15.5028 0.436078 15.5028 0.809719V2.84776H8.74546V0.809719C8.74546 0.436078 8.36536 0.130371 7.9008 0.130371H6.21147C5.74691 0.130371 5.36681 0.436078 5.36681 0.809719V2.84776H2.83282C1.43384 2.84776 0.298828 3.76064 0.298828 4.88581V6.92385H23.9494V4.88581C23.9494 3.76064 22.8144 2.84776 21.4154 2.84776Z" fill="#F9F9F9"/>
</svg>
