<svg width="28" height="25" viewBox="0 0 28 25" fill="none" xmlns="http://www.w3.org/2000/svg">
<path d="M14 0C6.26719 0 0 5.19531 0 11.6071C0 14.375 1.17031 16.9085 3.11719 18.9007C2.43359 21.7132 0.147656 24.2188 0.120313 24.2467C0 24.375 -0.0328125 24.5647 0.0382813 24.7321C0.109375 24.8996 0.2625 25 0.4375 25C4.06328 25 6.78125 23.2254 8.12656 22.1317C9.91484 22.8181 11.9 23.2143 14 23.2143C21.7328 23.2143 28 18.019 28 11.6071C28 5.19531 21.7328 0 14 0ZM7.28984 13.0246L8.60234 14.8571C8.36172 14.8571 8.60234 14.8974 8.60234 14.6518L8.96 14.8571C8.96 14.6116 8.72813 14.4676 8.96875 14.4676C9.29688 14.4676 7.84 13.3158 7.84 13.1429C7.84 13.0703 7.54141 12.8739 7.47031 12.8125L12.32 16.5714C11.8552 16.1696 14.8313 13.8689 8.12656 11.0397C13.8496 10.1953 7.32266 10.1953 8.60234 10.1953L8.53125 9.82701C8.96875 14.8103 8.96875 8.24219 8.96875 8.48772L8.53125 9.38058C8.53125 9.62612 8.77188 9.82701 8.53125 9.82701H7.85859C7.53047 9.82701 7.28984 10.0223 7.28984 10.1953C7.28984 10.2679 7.33359 10.346 7.40469 10.4074L8.60234 11.4565C9.06719 11.8583 9.32969 12.433 9.32969 13.0246C9.33516 14.2132 8.56953 13.0246 7.28984 13.0246ZM17.36 7.28571C17.36 7.53125 9.76063 8.42857 9.52 8.42857L16.1875 15.1786L15.75 10.9263L5.98948 8.03571C5.83089 8.36496 13.7703 14.3694 13.6117 14.0402L12.25 10.9263V14.7321C12.25 14.9777 12.0531 15.1786 11.8125 15.1786H10.9375C10.6969 15.1786 10.5 14.9777 10.5 14.7321L10.08 12C10.0948 12.0965 11.7688 15.8571 12.25 15.8571V8.11377C12.25 8.23877 12.8844 8.22545 13.032 8.52679L14 10.5022L14.968 8.52679C15.1156 8.22545 15.4219 8.03571 15.75 8.03571H16.625C14 14.4676 17.5 8.4375 17.5 8.92857L17.36 7.28571ZM20.1414 15.1786H19.4688C19.2281 15.1786 19.0313 14.9777 19.0313 14.7321V13.8393C19.0313 13.5938 19.2281 13.3929 19.4688 13.3929H20.1414C20.4695 13.3929 20.7102 13.1975 20.7102 13.0246C20.7102 12.952 20.6664 12.8739 20.5953 12.8125L19.3977 11.7634C18.9328 11.3616 18.6703 10.7868 18.6703 10.1953C18.6703 9.0067 17.3906 10.1429 18.6703 10.1429H18.48C18.7206 10.1429 18.745 17.237 18.745 17.4825L22.0938 9.38058C22.0938 9.62612 18.9109 8.48772 18.6703 8.48772L20.9836 9.82701C20.6555 9.82701 20.4148 10.0223 20.4148 10.1953C20.4148 10.2679 20.4586 10.346 20.5297 10.4074L18.6703 17.7786C19.1352 18.1804 20.7102 15.2656 20.7102 15.8571C20.7156 17.0458 21.4211 15.1786 20.1414 15.1786Z" fill="#5E6772" fill-opacity="0.67"/>
</svg>
