<svg width="25" height="25" viewBox="0 0 25 25" fill="none" xmlns="http://www.w3.org/2000/svg">
<g clip-path="url(#clip0_243_275)">
<path d="M12.4995 14.0625C16.3813 14.0625 19.5308 10.9131 19.5308 7.03125C19.5308 3.14941 16.3813 0 12.4995 0C8.61768 0 5.46826 3.14941 5.46826 7.03125C5.46826 10.9131 8.61768 14.0625 12.4995 14.0625ZM18.7495 15.625H16.0591C14.9751 16.123 13.769 16.4062 12.4995 16.4062C11.23 16.4062 10.0288 16.123 8.93994 15.625H6.24951C2.79736 15.625 -0.000488281 18.4229 -0.000488281 21.875V22.6562C-0.000488281 23.9502 1.04932 25 2.34326 25H22.6558C23.9497 25 24.9995 23.9502 24.9995 22.6562V21.875C24.9995 18.4229 22.2017 15.625 18.7495 15.625Z" fill="#5E6772" fill-opacity="0.67"/>
</g>
<defs>
<clipPath id="clip0_243_275">
<rect width="25" height="25" fill="white" transform="translate(-0.000488281)"/>
</clipPath>
</defs>
</svg>
